<?xml version="1.0" encoding="utf-8"?>
<!-- Generator: Adobe Illustrator 22.1.0, SVG Export Plug-In . SVG Version: 6.00 Build 0)  -->
<svg version="1.1" id="Layer_1" xmlns="http://www.w3.org/2000/svg" xmlns:xlink="http://www.w3.org/1999/xlink" x="0px" y="0px"
	 viewBox="0 0 429 320" style="enable-background:new 0 0 429 320;" xml:space="preserve">
<style type="text/css">
	.st0{fill:#2E7FFE;}
	.st1{fill:none;stroke:#FFFFFF;stroke-width:12.9818;stroke-linecap:round;stroke-linejoin:round;stroke-miterlimit:10;}
</style>
<g>
	<g>
		<g>
			<path class="st0" d="M418.5,195.7c-14.7,7.2-41.5,12.3-68.5,23.4c-27.4,10.4-55,25.2-86.2,35.4c-30.7,10.5-52.1,12.7-78,2.1
				c-13.4-4.9-28.7-12.3-48.1-20.3c-19.1-8.2-42.5-16.4-65.3-27c-23.5-11.7-41-25.6-52.6-49.6c-11.1-23-19.3-56.9-17.1-83
				c1.9-27.2,20-40.8,62.2-41.3c41.4-0.9,101.1,10,165.1,21.4C296.4,68.1,344.3,75.8,371.5,87c28,10.7,34.5,27.3,41.5,43.6
				C423.6,167,431,189.5,418.5,195.7z"/>
		</g>
	</g>
</g>
<path class="st1" d="M160.9,156.7h19.5l17-53.5l29.2,87.6l17-34.1H268"/>
</svg>
