<?xml version="1.0" encoding="utf-8"?>
<!-- Generator: Adobe Illustrator 21.0.2, SVG Export Plug-In . SVG Version: 6.00 Build 0)  -->
<svg version="1.1" id="Layer_1" xmlns="http://www.w3.org/2000/svg" xmlns:xlink="http://www.w3.org/1999/xlink" x="0px" y="0px"
	 viewBox="0 0 1607 1522" style="enable-background:new 0 0 1607 1522;" xml:space="preserve">
<style type="text/css">
	.st0{fill:url(#_x31_2_1_);}
</style>
<linearGradient id="_x31_2_1_" gradientUnits="userSpaceOnUse" x1="812.1793" y1="1532.3848" x2="777.369" y2="-1.5709">
	<stop  offset="0" style="stop-color:#4F5CFE"/>
	<stop  offset="1" style="stop-color:#01AEFE"/>
</linearGradient>
<path id="_x31_2" class="st0" d="M391,108.1c221.3-172.9,540.8-133.7,713.7,87.6s133.6,540.8-87.7,713.7
	c-65.8,51.4-140.3,83.9-217.1,98.6c29.4,11.7,56.2,31,77.1,57.8c63,80.6,48.7,197.1-32,260.2c-76.3,59.6-184.5,50-249.3-19.3
	c-12.1,13-25.1,25.4-39.5,36.7C406.3,1460.3,190,1433.8,72.9,1284c-117.1-149.8-90.5-366.2,59.4-483.2
	c36.6-28.6,77.1-48.4,119.2-60.2C142.2,527.8,195.5,260.8,391,108.1z M1028.7,1397.4c-109.8-140.6-84.9-343.6,55.7-453.5
	c140.6-109.9,343.7-84.9,453.5,55.6c109.8,140.6,84.9,343.6-55.7,453.5C1341.6,1563,1138.5,1538,1028.7,1397.4z"/>
</svg>
