<?xml version="1.0" encoding="utf-8"?>
<!-- Generator: Adobe Illustrator 22.1.0, SVG Export Plug-In . SVG Version: 6.00 Build 0)  -->
<svg version="1.1"
	 id="svg3538" xmlns:cc="http://creativecommons.org/ns#" xmlns:dc="http://purl.org/dc/elements/1.1/" xmlns:rdf="http://www.w3.org/1999/02/22-rdf-syntax-ns#" xmlns:svg="http://www.w3.org/2000/svg"
	 xmlns="http://www.w3.org/2000/svg" xmlns:xlink="http://www.w3.org/1999/xlink" x="0px" y="0px" viewBox="0 0 1223.2 556.2"
	 style="enable-background:new 0 0 1223.2 556.2;" xml:space="preserve">
<style type="text/css">
	.st0{fill:#99A9BB;}
</style>
<g id="g3646" transform="matrix(7.4464891,0,0,7.4464891,2804.5105,-1839.1239)">
	<path id="path3346" class="st0" d="M-321,266h-44.2v-8.2h44.2V266L-321,266z M-317.8,254.7h-50.5v14.5h50.5V254.7z"/>
	<g id="g3348" transform="matrix(1.25,0,0,-1.25,-431.10089,333.35578)">
		<path id="path3350" class="st0" d="M52.8,32.2h-2.5v11.6h2.5v-4.6h4.5v4.6h2.5V32.2h-2.5V37h-4.5V32.2"/>
	</g>
	<g id="g3352" transform="matrix(1.25,0,0,-1.25,-414.13839,325.41203)">
		<path id="path3354" class="st0" d="M50.1,31h3c-0.1,0.9-0.4,1.4-1.4,1.4C51,32.4,50.3,32.1,50.1,31z M52,25.7
			c-2.6,0-4.3,1.6-4.3,4.3c0,2.6,1.7,4.4,4,4.4c2.5,0,3.7-1.7,3.7-4.1v-0.9h-5.3c0.3-1.3,1.3-1.6,2.3-1.6c0.9,0,1.5,0.2,2.3,0.7h0.1
			v-1.9C54.1,25.9,53.2,25.7,52,25.7"/>
	</g>
	<g id="g3356" transform="matrix(1.25,0,0,-1.25,-395.61089,325.76078)">
		<path id="path3358" class="st0" d="M47.1,31l-1.3-4.9h-2.2l-2.5,8.2v0.1h2.4l1.4-4.9l1.3,4.9h2l1.3-4.9l1.4,4.9h2.3v-0.1l-2.5-8.1
			h-2.2L47.1,31"/>
	</g>
	<g id="g3360" transform="matrix(1.25,0,0,-1.25,-379.75089,333.64578)">
		<path id="path3362" class="st0" d="M44.6,32.3c-2,0-2.8,0.8-2.8,2.7v9.1h2.4v-8.9c0-0.6,0.2-0.8,0.7-0.8c0.2,0,0.4,0.1,0.6,0.1
			l0,0v-2C45.3,32.4,45,32.3,44.6,32.3"/>
	</g>
	<g id="g3364" transform="matrix(1.25,0,0,-1.25,-373.48714,325.41203)">
		<path id="path3366" class="st0" d="M43.6,31h3c-0.1,0.9-0.4,1.4-1.4,1.4C44.5,32.4,43.8,32.1,43.6,31z M45.5,25.7
			c-2.6,0-4.3,1.6-4.3,4.3c0,2.6,1.7,4.4,4,4.4c2.5,0,3.7-1.7,3.7-4.1v-0.9h-5.3c0.3-1.3,1.3-1.6,2.3-1.6c0.9,0,1.5,0.2,2.3,0.7h0.1
			v-1.9C47.6,25.9,46.7,25.7,45.5,25.7"/>
	</g>
	<g id="g3368" transform="matrix(1.25,0,0,-1.25,-349.53714,320.45453)">
		<path id="path3370" class="st0" d="M39.8,30.2h1.8v-2h-1.8v-3.3c0-0.7,0.3-1.1,1-1.1c0.2,0,0.5,0,0.7,0.1h0.1V22
			c-0.3-0.1-0.8-0.2-1.5-0.2c-2,0-2.8,0.9-2.8,3v3.5h-3.1v-3.4c0-0.7,0.3-1.1,1-1.1c0.2,0,0.5,0,0.7,0.1H36V22
			c-0.3-0.1-0.8-0.2-1.5-0.2c-2,0-2.8,0.9-2.8,3v3.5h-1.3v2h1.3v2.3h2.4v-2.3h3.1v2.3h2.4v-2.4"/>
	</g>
	<g id="g3372" transform="matrix(1.25,0,0,-1.25,-333.79964,324.13703)">
		<path id="path3374" class="st0" d="M37.2,30.8c1.3,0,1.9,0.7,1.9,1.8c0,1.1-0.6,1.8-1.9,1.8h-1.6v-3.6H37.2z M41.7,32.5
			c0-2.5-1.7-3.9-4.3-3.9h-1.8v-3.7h-2.5v11.6h4.3C40,36.5,41.7,35.1,41.7,32.5"/>
	</g>
	<g id="g3376" transform="matrix(1.25,0,0,-1.25,-318.43214,329.29703)">
		<path id="path3378" class="st0" d="M34.8,31.6v0.7c-0.4,0.2-0.9,0.3-1.4,0.3c-0.8,0-1.3-0.3-1.3-1c0-0.7,0.5-1,1.2-1
			C34,30.6,34.6,31,34.8,31.6z M34.9,29.8c-0.5-0.6-1.3-1-2.2-1c-1.6,0-2.9,1-2.9,2.7c0,1.6,1.3,2.7,3.2,2.7c0.6,0,1.2-0.1,1.8-0.3
			V34c0,0.9-0.5,1.3-1.8,1.3c-0.8,0-1.6-0.2-2.3-0.6h-0.1v2c0.6,0.4,1.7,0.7,2.8,0.7c2.5,0,3.8-1.2,3.8-3.3v-5.2h-2.4v0.9"/>
	</g>
	<g id="g3380" transform="matrix(1.25,0,0,-1.25,-312.66214,326.92078)">
		<path id="path3382" class="st0" d="M33.9,31.2c0,2.7,1.9,4.3,4.3,4.3c0.9,0,1.7-0.2,2.3-0.6v-2.1h-0.1c-0.5,0.4-1.2,0.6-1.9,0.6
			c-1.2,0-2.2-0.8-2.2-2.2c0-1.4,0.9-2.2,2.2-2.2c0.7,0,1.4,0.2,1.9,0.7h0.1v-2.1c-0.6-0.4-1.4-0.6-2.3-0.6
			C35.7,26.9,33.9,28.6,33.9,31.2"/>
	</g>
	<g id="g3384" transform="matrix(1.25,0,0,-1.25,-296.07714,327.50078)">
		<path id="path3386" class="st0" d="M31.2,31.3v-3.7h-2.4v11.6h2.4v-6.6l2.5,3.3h2.8v-0.1l-3-3.7l3-4.3v-0.1h-2.8L31.2,31.3"/>
	</g>
	<g id="g3388" transform="matrix(1.25,0,0,-1.25,-279.28839,329.29703)">
		<path id="path3390" class="st0" d="M28.5,31.6v0.7c-0.4,0.2-0.9,0.3-1.4,0.3c-0.8,0-1.3-0.3-1.3-1c0-0.7,0.5-1,1.2-1
			C27.8,30.6,28.3,31,28.5,31.6z M28.6,29.8c-0.5-0.6-1.3-1-2.2-1c-1.6,0-2.9,1-2.9,2.7c0,1.6,1.3,2.7,3.2,2.7
			c0.6,0,1.2-0.1,1.8-0.3V34c0,0.9-0.5,1.3-1.8,1.3c-0.8,0-1.6-0.2-2.3-0.6h-0.1v2c0.6,0.4,1.7,0.7,2.8,0.7c2.5,0,3.8-1.2,3.8-3.3
			v-5.2h-2.4v0.9"/>
	</g>
	<g id="g3392" transform="matrix(1.25,0,0,-1.25,-269.02339,322.54203)">
		<path id="path3394" class="st0" d="M26.9,30.5c0.4,0.9,1.1,1.4,2,1.4c0.3,0,0.7-0.1,0.8-0.1v-2.3h-0.1c-0.3,0.1-0.6,0.2-1.1,0.2
			c-0.8,0-1.4-0.4-1.6-1.3v-4.8h-2.4v8.3h2.4L26.9,30.5"/>
	</g>
	<g id="g3396" transform="matrix(1.25,0,0,-1.25,-254.49714,328.97828)">
		<path id="path3398" class="st0" d="M24.6,31.5v2.7c-0.4,0.6-0.9,0.9-1.6,0.9c-1.1,0-1.8-0.8-1.8-2.2c0-1.4,0.7-2.2,1.8-2.2
			C23.6,30.7,24.1,30.9,24.6,31.5z M24.6,29.6c-0.5-0.7-1.3-1-2.4-1c-2.1,0-3.5,1.9-3.5,4.3c0,2.4,1.4,4.3,3.5,4.3
			c1.1,0,1.9-0.3,2.4-0.9v4.1H27V28.7h-2.4V29.6"/>
	</g>
	<g id="g3400" transform="matrix(1.25,0,0,-1.25,-435.04464,339.27328)">
		<path id="path3402" class="st0" d="M53.4,33.2h7.2v-1.4h-5.5v-3.5h5v-1.4h-5V23h5.5v-1.4h-7.2V33.2"/>
	</g>
	<g id="g3404" transform="matrix(1.25,0,0,-1.25,-414.60339,344.37453)">
		<path id="path3406" class="st0" d="M50.2,34c1.8,0,2.9-1.2,2.9-3.2v-5.1h-1.5v5.1c0,1.1-0.5,1.8-1.7,1.8c-1,0-1.8-0.6-2.1-1.5
			v-5.4h-1.5v8.2h1.4v-1.2C48.2,33.4,49,34,50.2,34"/>
	</g>
	<g id="g3408" transform="matrix(1.25,0,0,-1.25,-403.67089,344.63578)">
		<path id="path3410" class="st0" d="M48.4,34h2.1v-1.3h-2.1v-4.4c0-0.9,0.5-1.2,1.4-1.2c0.2,0,0.5,0,0.7,0.1h0.1v-1.3
			c-0.2-0.1-0.5-0.2-1-0.2c-1.9,0-2.7,0.9-2.7,2.5v4.5h-1.4V34h1.4v2.2h1.5V34"/>
	</g>
	<g id="g3412" transform="matrix(1.25,0,0,-1.25,-396.36464,349.76578)">
		<path id="path3414" class="st0" d="M47.2,34.9h4.1c-0.1,1.2-0.6,2.1-1.9,2.1C48.2,37,47.5,36.1,47.2,34.9z M49.7,29.8
			c-2.4,0-4,1.6-4,4.2s1.5,4.3,3.7,4.3s3.4-1.6,3.4-4v-0.7h-5.6c0.2-1.7,1.2-2.4,2.7-2.4c0.9,0,1.6,0.2,2.3,0.7h0.1v-1.4
			C51.6,30,50.7,29.8,49.7,29.8"/>
	</g>
	<g id="g3416" transform="matrix(1.25,0,0,-1.25,-382.44714,346.60703)">
		<path id="path3418" class="st0" d="M45,34.4c0.4,0.9,1.1,1.4,2,1.4c0.4,0,0.7-0.1,0.8-0.1v-1.5h-0.1c-0.2,0.1-0.6,0.2-1,0.2
			c-0.8,0-1.5-0.6-1.8-1.5v-5.3h-1.5v8.2h1.5L45,34.4"/>
	</g>
	<g id="g3420" transform="matrix(1.25,0,0,-1.25,-370.26964,355.47703)">
		<path id="path3422" class="st0" d="M43.1,35.8c1.5,0,2.4,1.2,2.4,2.9c0,1.6-0.9,2.9-2.4,2.9c-0.8,0-1.6-0.5-2-1.3v-3.1
			C41.5,36.3,42.2,35.8,43.1,35.8z M43.3,42.9c2.4,0,3.7-2,3.7-4.2c0-2.3-1.3-4.2-3.7-4.2c-1,0-1.9,0.5-2.3,1.1v-4h-1.5v11.3H41V42
			C41.5,42.4,42.3,42.9,43.3,42.9"/>
	</g>
	<g id="g3424" transform="matrix(1.25,0,0,-1.25,-358.78714,346.60703)">
		<path id="path3426" class="st0" d="M41.2,34.4c0.4,0.9,1.1,1.4,2,1.4c0.4,0,0.7-0.1,0.8-0.1v-1.5h-0.1c-0.2,0.1-0.6,0.2-1,0.2
			c-0.8,0-1.5-0.6-1.8-1.5v-5.3h-1.4v8.2h1.5V34.4"/>
	</g>
	<g id="g3428" transform="matrix(1.25,0,0,-1.25,-350.90089,339.47578)">
		<path id="path3430" class="st0" d="M40,33.2c0.5,0,1-0.4,1-1c0-0.5-0.4-1-1-1c-0.5,0-1,0.4-1,1C39,32.8,39.5,33.2,40,33.2"/>
	</g>
	<path id="path3432" class="st0" d="M-302,312.4h1.9v-10.2h-1.9V312.4z"/>
	<g id="g3434" transform="matrix(1.25,0,0,-1.25,-341.09964,349.94078)">
		<path id="path3436" class="st0" d="M38.4,34.9c1.2-0.4,2.5-0.9,2.5-2.4c0-1.7-1.4-2.5-3.1-2.5c-1.1,0-2.2,0.3-2.8,0.7v1.5h0.1
			c0.7-0.6,1.7-0.9,2.7-0.9c0.9,0,1.7,0.3,1.7,1s-0.6,0.9-1.9,1.3c-1.2,0.4-2.4,0.8-2.4,2.3c0,1.6,1.3,2.5,3,2.5
			c1,0,1.8-0.2,2.5-0.7v-1.5h-0.1c-0.7,0.5-1.4,0.9-2.4,0.9c-1,0-1.5-0.4-1.5-1C36.5,35.5,37.1,35.3,38.4,34.9"/>
	</g>
	<g id="g3438" transform="matrix(1.25,0,0,-1.25,-332.66214,349.76578)">
		<path id="path3440" class="st0" d="M37.1,34.9h4.1c-0.1,1.2-0.6,2.1-1.9,2.1C38,37,37.3,36.1,37.1,34.9z M39.5,29.8
			c-2.4,0-4,1.6-4,4.2s1.5,4.3,3.7,4.3s3.4-1.6,3.4-4v-0.7H37c0.2-1.7,1.2-2.4,2.7-2.4c0.9,0,1.6,0.2,2.3,0.7h0.1v-1.4
			C41.4,30,40.5,29.8,39.5,29.8"/>
	</g>
</g>
</svg>
