<?xml version="1.0" encoding="utf-8"?>
<!-- Generator: Adobe Illustrator 22.1.0, SVG Export Plug-In . SVG Version: 6.00 Build 0)  -->
<svg version="1.1" id="svg2812" xmlns:svg="http://www.w3.org/2000/svg"
	 xmlns="http://www.w3.org/2000/svg" xmlns:xlink="http://www.w3.org/1999/xlink" x="0px" y="0px" viewBox="0 0 300 107.4"
	 style="enable-background:new 0 0 300 107.4;" xml:space="preserve">
<style type="text/css">
	.st0{fill:#99A9BB;}
</style>
<g id="Page-1">
	<g id="logo-white">
		<g id="Ebene_x25_201">
			<path id="Shape" class="st0" d="M112.3,85.9l-2.3-6.8H97.5c-0.3,1.1-0.7,2.2-1.1,3.4l-1.1,3.4h-6.1l11.2-31.1h6.6L118,86
				L112.3,85.9L112.3,85.9L112.3,85.9z M103.7,61.5c-0.7,2.1-1.5,4.1-2.2,6.1s-1.5,4.1-2.3,6.4h9L103.7,61.5L103.7,61.5z"/>
			<path id="Shape_1_" class="st0" d="M136.3,54.7h-11.5V86h5.3V75.4h6.1c6.2,0,9.3-2.6,9.3-8V63C145.6,57.4,142.5,54.7,136.3,54.7
				L136.3,54.7L136.3,54.7z M130,59.7h6c3.6,0,4.1,1,4.1,3.2v4.3c0,2.2-0.6,3.2-4.1,3.2h-6V59.7L130,59.7z"/>
			<path id="Shape_2_" class="st0" d="M163.2,54.7h-11.4V86h5.3V75.4h6.1c6.2,0,9.3-2.6,9.3-8V63C172.6,57.4,169.5,54.7,163.2,54.7
				L163.2,54.7L163.2,54.7z M157,59.7h6c3.6,0,4.1,1,4.1,3.2v4.3c0,2.2-0.6,3.2-4.1,3.2h-6V59.7L157,59.7z"/>
			<path id="Shape_3_" class="st0" d="M184,82.9h14.4V86h-17.6V54.8h3.2L184,82.9L184,82.9z"/>
			<path id="Shape_4_" class="st0" d="M226,76.9c0,5.2-3.2,9.4-11.2,9.4s-11.3-4.2-11.3-9.4V63.7c0-5.2,3.2-9.4,11.3-9.4
				c8,0,11.2,4.2,11.2,9.4V76.9L226,76.9z M206.3,77c0,4.4,2.8,7,8.5,7s8.5-2.5,8.5-7V63.6c0-4.4-2.7-7-8.5-7c-5.7,0-8.5,2.5-8.5,7
				V77L206.3,77z"/>
			<path id="Shape_5_" class="st0" d="M230.7,54.8h3.1l10,28.1L254,54.8h3.2L246,86h-4.1L230.7,54.8L230.7,54.8z"/>
			<path id="Shape_6_" class="st0" d="M263.6,54.8h3.2V86h-3.2V54.8L263.6,54.8z"/>
			<path id="Shape_7_" class="st0" d="M281.8,58.5V86h-3V54.8h4.7L297,81.5V54.8h3V86h-3.7L281.8,58.5L281.8,58.5z"/>
			<path id="Shape_8_" class="st0" d="M32.7,48.3c0-3.3,2.6-5.9,5.9-5.9c3.3,0,5.9,2.6,5.9,5.9s-2.6,5.9-5.9,5.9
				C35.4,54.2,32.7,51.5,32.7,48.3L32.7,48.3L32.7,48.3z M30.4,48.3c0,4.6,3.7,8.3,8.2,8.3s8.2-3.7,8.2-8.3S43.2,40,38.7,40
				C34.1,40,30.4,43.7,30.4,48.3L30.4,48.3L30.4,48.3z M62.9,99.1c0-3.3,2.6-5.9,5.9-5.9s5.9,2.6,5.9,5.9s-2.6,5.9-5.9,5.9
				C65.5,105,62.9,102.4,62.9,99.1L62.9,99.1L62.9,99.1z M60.5,99.1c0,4.6,3.7,8.3,8.2,8.3s8.2-3.7,8.2-8.3c0-4.6-3.7-8.3-8.2-8.3
				S60.5,94.5,60.5,99.1L60.5,99.1L60.5,99.1z M2.6,99.1c0-3.3,2.6-5.9,5.9-5.9s5.9,2.6,5.9,5.9s-2.6,5.9-5.9,5.9
				S2.6,102.4,2.6,99.1L2.6,99.1L2.6,99.1z M0.3,99.1c0,4.6,3.7,8.3,8.2,8.3s8.2-3.7,8.2-8.3c0-4.6-3.7-8.3-8.2-8.3
				S0.3,94.5,0.3,99.1L0.3,99.1L0.3,99.1z M31.6,54.7L11.9,90.1c1.1,0.3,1.9,1,2.8,1.6h0.1c6.5-1.8,15-2.6,24.2-2.6
				c8.9,0,17.2,1.1,23.6,2.6v0.1h0.1c0.7-0.7,1.7-1.3,2.8-1.6L45.6,54.7c-0.7,0.8-1.6,1.6-2.5,2.1l17.7,31.9
				c-6-1.4-13.7-2.2-21.9-2.2c-8.5,0-16.3,0.7-22.5,2.2l17.8-32C33.2,56.2,32.2,55.6,31.6,54.7L31.6,54.7L31.6,54.7z"/>
		</g>
	</g>
</g>
</svg>
