<?xml version="1.0" encoding="utf-8"?>
<!-- Generator: Adobe Illustrator 22.1.0, SVG Export Plug-In . SVG Version: 6.00 Build 0)  -->
<svg version="1.1"
	 id="svg2812" inkscape:output_extension="org.inkscape.output.svg.inkscape" inkscape:version="0.45+devel" sodipodi:docname="redhat-logo.svg" sodipodi:version="0.32" xmlns:cc="http://web.resource.org/cc/" xmlns:dc="http://purl.org/dc/elements/1.1/" xmlns:inkscape="http://www.inkscape.org/namespaces/inkscape" xmlns:rdf="http://www.w3.org/1999/02/22-rdf-syntax-ns#" xmlns:sodipodi="http://sodipodi.sourceforge.net/DTD/sodipodi-0.dtd" xmlns:svg="http://www.w3.org/2000/svg"
	 xmlns="http://www.w3.org/2000/svg" xmlns:xlink="http://www.w3.org/1999/xlink" x="0px" y="0px" viewBox="0 0 382 137.1"
	 style="enable-background:new 0 0 382 137.1;" xml:space="preserve">
<style type="text/css">
	.st0{fill:none;}
	.st1{fill:#8495A5;}
	.st2{fill:#9AA9BB;}
	.st3{fill:#738291;}
</style>
<sodipodi:namedview  bordercolor="#666666" borderopacity="1.0" height="140px" id="base" inkscape:current-layer="layer1" inkscape:cx="174.26394" inkscape:cy="40.358463" inkscape:document-units="mm" inkscape:pageopacity="0.0" inkscape:pageshadow="2" inkscape:window-height="523" inkscape:window-width="722" inkscape:window-x="71" inkscape:window-y="636" inkscape:zoom="1" pagecolor="#ffffff" width="300px">
	</sodipodi:namedview>
<rect x="-23.8" y="17.4" class="st0" width="420.9" height="144.9"/>
<polygon class="st1" points="43.7,97.3 71.4,112.8 72.4,101 64.7,92.8 53.4,91 "/>
<polygon class="st2" points="48.4,43.7 71.4,112.8 94.4,89.8 "/>
<polygon class="st3" points="44.7,80.3 43.7,97.3 79.1,89.8 "/>
<polygon class="st3" points="2.3,89.8 2.3,89.8 26.9,114.4 31.5,108.3 30.7,100.9 19.4,93.6 "/>
<polygon class="st1" points="45.9,46.2 2.3,89.8 30.7,100.9 "/>
<polygon class="st2" points="30.7,100.9 26.9,114.4 48.4,135.9 68.5,115.7 "/>
<polygon class="st2" points="125.1,102.9 120.8,102.9 120.8,68.1 125.1,65.6 "/>
<polygon class="st2" points="318,71.9 313.5,71.9 313.5,68.5 313.5,67.2 318,67.2 "/>
<path class="st2" d="M144.4,76c-3.3-0.1-6.4,1.6-8.2,4.4v-3.8H132v26.3h4.2v-15c0-4.6,2.9-7.8,7.1-7.8s6.5,2.8,6.5,7.5v15.3h4.2
	V86.6c0.1-2.8-0.8-5.5-2.5-7.6C149.7,77.1,147.1,76,144.4,76z"/>
<path class="st2" d="M187.7,76c-3.6,0-7,1.5-9.4,4.1s-3.8,6.1-3.7,9.6v0.1c-0.2,7.3,5.5,13.4,12.8,13.6c0.1,0,0.2,0,0.3,0
	c3.6,0,7-1.5,9.5-4.1s3.8-6.1,3.8-9.6v-0.1c0.2-7.3-5.5-13.4-12.8-13.6C187.9,76.1,187.8,76,187.7,76z M196.5,89.8L196.5,89.8
	c0,5.6-3.8,9.7-8.8,9.7s-8.9-4.3-8.9-9.8v-0.1c0-5.5,3.8-9.7,8.7-9.7S196.5,84.3,196.5,89.8z"/>
<path class="st2" d="M210.1,82.4v-5.8h-4.2v26.3h4.2V92.4c0-7,3.7-11.7,9.5-11.7h0.6v-4.5h-0.3C215.8,76,212.3,78.3,210.1,82.4z"/>
<path class="st2" d="M252.7,76c-3.5-0.1-6.8,1.8-8.6,4.9c-1.5-3-4.6-4.9-7.9-4.9c-3.1,0-6,1.6-7.7,4.3v-3.7h-4.2v26.3h4.2v-15
	c0-4.6,2.8-7.9,6.6-7.9s6.1,2.8,6.1,7.4v15.4h4.2V87.7c-0.1-2.1,0.6-4.1,1.9-5.7c1.2-1.3,2.8-2,4.6-2c3.9,0,6.1,2.7,6.1,7.5v15.4
	h4.2V86.7C262.2,80.1,258.5,76,252.7,76z"/>
<path class="st2" d="M308.4,80.5v-3.9h-7.9v-9.2l-4.2,2.5v6.7h-4.6v3.9h4.6v15.3c0,6.6,4.5,7.6,7.2,7.6c1.6,0,3.2-0.4,4.6-1.1
	l0.1-0.1v-4l-0.4,0.2c-1.1,0.6-2.2,0.9-3.5,0.9c-2.6,0-3.9-1.3-3.9-4V80.5H308.4z"/>
<path class="st2" d="M343.4,95.8c-1.8,2.3-4.4,3.7-7.3,3.8c-4.9,0-8.8-4.3-8.8-9.8v-0.1c0-5.4,3.8-9.7,8.5-9.7
	c3.4,0,5.5,1.8,7.3,3.8l0.2,0.2l2.8-3.1l-0.2-0.2c-2.5-3-6.2-4.7-10.1-4.7c-3.5,0-6.9,1.5-9.2,4.1c-2.4,2.6-3.7,6.1-3.7,9.6V90
	c0,3.5,1.3,7,3.7,9.6c2.4,2.6,5.7,4.1,9.2,4.1c4,0,7.8-1.9,10.3-5.1l0.2-0.2l-2.7-2.7L343.4,95.8z"/>
<path class="st2" d="M278.1,76c-3.2,0-6.3,0.7-9.1,2.2l-0.2,0.1l1.3,3.7l0.3-0.1c2.3-1.2,4.8-1.8,7.4-1.9c4.5,0,7.1,2.1,7.1,6.9
	h-7.4c-6.9,0-10.8,3-10.8,8.2v0.1c0,5.4,4.8,8.3,9.5,8.3c3.3,0.1,6.5-1.4,8.7-3.9v3.4h4V87c0.2-2.9-0.8-5.7-2.6-7.9
	C284.5,77,281.7,76,278.1,76z M284.9,90.2v2.9c0,3.8-3.4,6.7-8,6.7c-4.1,0-5.9-2.5-5.9-4.9v-0.1c0-2.1,1.2-4.7,6.9-4.7L284.9,90.2z"
	/>
<path class="st2" d="M166,74.2c0-3.8,1-5.2,4-5.2c1.2,0,2.4,0.2,3.5,0.6l0.3,0.1v-3.9h-0.1c-1.3-0.5-2.7-0.7-4.1-0.7
	c-2-0.1-4,0.7-5.5,2.1c-1.6,1.9-2.4,4.3-2.2,6.8v2.6h-4.6v3.9h4.6v22.4h4.2V80.5h7.9v-3.9h-8V74.2z"/>
<polygon class="st2" points="317.9,102.9 313.6,102.9 313.6,79.4 313.6,76.6 317.9,76.6 "/>
<path class="st2" d="M360.3,76c-3.2,0-6.3,0.7-9.1,2.2l-0.2,0.1l1.3,3.7l0.3-0.1c2.3-1.2,4.8-1.8,7.4-1.9c4.5,0,7.1,2.1,7.1,6.9
	h-7.4c-6.9,0-10.8,3-10.8,8.2v0.1c0,5.4,4.8,8.3,9.5,8.3c3.3,0.1,6.5-1.4,8.7-3.9v3.4h4V87c0.2-2.9-0.8-5.7-2.6-7.9
	C366.6,77,363.9,76,360.3,76z M367.1,90.2v2.9c0,3.8-3.4,6.7-8,6.7c-4.1,0-5.9-2.5-5.9-4.9v-0.1c0-2.1,1.2-4.7,6.9-4.7L367.1,90.2z"
	/>
<path class="st2" d="M373.6,77.1h-1v-0.5h2.5v0.5h-1v2.5h-0.5V77.1z"/>
<path class="st2" d="M375.6,76.6h0.6l0.9,1.4l0.9-1.4h0.6v3.1h-0.5v-2.2l-1,1.4l0,0l-0.9-1.4v2.2h-0.6V76.6z"/>
</svg>
