<?xml version="1.0" encoding="utf-8"?>
<!-- Generator: Adobe Illustrator 22.1.0, SVG Export Plug-In . SVG Version: 6.00 Build 0)  -->
<svg version="1.1"
	 id="svg2812" inkscape:output_extension="org.inkscape.output.svg.inkscape" inkscape:version="0.45+devel" sodipodi:docname="redhat-logo.svg" sodipodi:version="0.32" xmlns:cc="http://web.resource.org/cc/" xmlns:dc="http://purl.org/dc/elements/1.1/" xmlns:inkscape="http://www.inkscape.org/namespaces/inkscape" xmlns:rdf="http://www.w3.org/1999/02/22-rdf-syntax-ns#" xmlns:sodipodi="http://sodipodi.sourceforge.net/DTD/sodipodi-0.dtd" xmlns:svg="http://www.w3.org/2000/svg"
	 xmlns="http://www.w3.org/2000/svg" xmlns:xlink="http://www.w3.org/1999/xlink" x="0px" y="0px" viewBox="0 0 300 117.1"
	 style="enable-background:new 0 0 300 117.1;" xml:space="preserve">
<style type="text/css">
	.st0{fill:#FFFFFF;}
	.st1{fill:#9AA9BB;}
	.st2{opacity:0.57;fill:#9AA9BB;enable-background:new    ;}
	.st3{fill:none;}
	.st4{fill:#CCD7E0;}
</style>
<sodipodi:namedview  bordercolor="#666666" borderopacity="1.0" height="140px" id="base" inkscape:current-layer="layer1" inkscape:cx="174.26394" inkscape:cy="40.358463" inkscape:document-units="mm" inkscape:pageopacity="0.0" inkscape:pageshadow="2" inkscape:window-height="523" inkscape:window-width="722" inkscape:window-x="71" inkscape:window-y="636" inkscape:zoom="1" pagecolor="#ffffff" width="300px">
	</sodipodi:namedview>
<g id="layer1" transform="translate(-13.714282,-252.57246)" inkscape:groupmode="layer" inkscape:label="Layer 1">
	<g id="shadowman" transform="matrix(2.1166666,0,0,2.1166666,-32.193429,187.76029)">
		<path id="path4548" class="st0" d="M66.6,63.5c0,12.4-10,22.4-22.4,22.4s-22.4-10-22.4-22.4s10-22.4,22.4-22.4
			S66.6,51.1,66.6,63.5z"/>
		<path id="path620" class="st1" d="M147.8,71.8c0,1.2,0,2.4,0.2,3.6h-1.4l-0.2-2.2h-0.1c-0.7,1.2-2.4,2.5-4.8,2.5
			c-3.1,0-4.5-2.2-4.5-4.2c0-3.5,3.1-5.6,9.3-5.6v-0.4c0-1.5-0.3-4.5-3.9-4.5c-1.3,0-2.7,0.4-3.8,1.1l-0.5-1.1
			c1.4-0.9,3.1-1.3,4.5-1.3c4.4,0,5.2,3.3,5.2,6V71.8L147.8,71.8z M146.3,67.3c-3.3-0.1-7.7,0.4-7.7,4.1c0,2.2,1.4,3.2,3,3.2
			c2.5,0,4-1.6,4.5-3c0.1-0.3,0.2-0.7,0.2-0.9V67.3L146.3,67.3z M153.8,56.9v3.4h4.3v1.1h-4.3v9.9c0,1.9,0.6,3.1,2.2,3.1
			c0.8,0,1.3-0.1,1.7-0.2l0.2,1.2c-0.5,0.2-1.2,0.4-2.1,0.4c-1.1,0-2-0.3-2.6-1.1c-0.7-0.8-0.9-2.1-0.9-3.6v-9.7h-2.6v-1.2h2.6v-2.8
			L153.8,56.9z M129,59.9c-1.2,0-2.2,0.3-3.1,0.9c-0.9,0.5-1.6,1.3-2.1,2.2h-0.1v-7.6l-1.5-0.4v20.4h1.5v-9.3c0-0.6,0-1,0.2-1.5
			c0.6-1.9,2.4-3.4,4.6-3.4c3.1,0,4.2,2.5,4.2,5.2v9h1.5v-9.2C134.3,60.6,130.5,59.9,129,59.9z"/>
		<path id="path616" class="st1" d="M78.2,65c0-2.1,0-3.6-0.1-5h3.4l0.1,2.9h0.1c0.8-2.2,2.6-3.3,4.2-3.3c0.4,0,0.6,0,0.9,0.1v3.7
			c-0.4-0.1-0.7-0.1-1.2-0.1c-1.9,0-3.1,1.2-3.5,3C82,66.6,82,67.1,82,67.5v8h-3.9L78.2,65z M91.6,68.8c0.1,2.8,2.3,4,4.8,4
			c1.8,0,3.1-0.3,4.3-0.7l0.6,2.7c-1.3,0.6-3.2,1-5.4,1c-5,0-7.9-3.1-7.9-7.8c0-4.3,2.6-8.3,7.5-8.3c5,0,6.6,4.1,6.6,7.5
			c0,0.7-0.1,1.3-0.1,1.7L91.6,68.8z M98.3,66.1c0-1.4-0.6-3.8-3.2-3.8c-2.4,0-3.4,2.2-3.6,3.8H98.3z M118.8,54.1l-3.9-1.1v8.7h-0.1
			c-0.7-1.1-2.2-2-4.3-2c-3.7,0-6.9,3.1-6.9,8.2c0,4.7,2.9,7.9,6.6,7.9c2.2,0,4.1-1.1,5-2.8h0.1l0.2,2.4h3.5c-0.1-1-0.1-2.7-0.1-4.3
			L118.8,54.1L118.8,54.1z M114.9,68.7c0,0.4,0,0.8-0.1,1.1c-0.4,1.7-1.8,2.8-3.4,2.8c-2.5,0-3.9-2.1-3.9-4.9c0-2.9,1.4-5.1,3.9-5.1
			c1.8,0,3,1.2,3.4,2.7c0.1,0.3,0.1,0.7,0.1,1V68.7L114.9,68.7z"/>
		<path id="path650" class="st1" d="M161.8,73.2c-0.9,0-1.6,0.7-1.6,1.6s0.7,1.6,1.6,1.6c0.9,0,1.6-0.7,1.6-1.6
			C163.4,73.9,162.7,73.2,161.8,73.2z M161.8,73.5c0.7,0,1.3,0.6,1.3,1.3c0,0.7-0.6,1.3-1.3,1.3s-1.3-0.6-1.3-1.3
			C160.5,74.1,161.1,73.5,161.8,73.5z M161.3,74v1.7h0.2V75h0.3l0.4,0.7h0.3L162,75c0.2,0,0.4-0.2,0.4-0.5c0-0.3-0.2-0.4-0.6-0.4
			L161.3,74L161.3,74z M161.5,74.2h0.3c0.2,0,0.4,0,0.4,0.2c0,0.3-0.2,0.3-0.4,0.3h-0.3V74.2z"/>
		<path id="path632" class="st2" d="M63.1,75.8c-2.3-0.6-4.6-0.3-6.8,0.4c-0.3,0-0.1,0.3-0.2,0.5c0.1,0.4-0.1,0.8-1.1,1
			c-1.5,0.3-2.5,1.9-3.1,2.4c-0.7,0.6-2.5,1-2.2,0.6c0.2-0.3,1-1.2,1.5-2.2c0.5-0.9,0.9-1.1,1.4-1.9c0.2-0.2,0.8-1.1,1-1.8
			c0.2-0.7,0.1-1.5,0.2-1.8c0.1-0.5,0.6-1.6,0.6-2.2c0-0.3-1.4,0.5-2.1,0.5s-1.3-0.4-2-0.4c-0.8,0-1.2,0.6-1.9,0.5
			C48,71.3,47.7,71,47,71c-1,0-2.2,0.5-4.4,0.5c-2.2-0.1-4.2-2.8-4.5-3.2c-0.3-0.5-0.7-0.5-1.2-0.1c-0.4,0.4-1,0.1-1.1-0.2
			c-0.3-0.5-1.1-2-2.2-2.3c-1.6-0.4-2.5,0.9-2.4,2s0.8,1.4,1.1,2c0.3,0.6,0.5,0.9,1.1,1.2c0.4,0.2,0.6,0.4,0.5,0.8
			c-0.1,0.3-0.6,0.4-0.9,0.4c-1.2,0-1.7-0.6-2.4-1.5c-0.4-0.6-1-0.9-1.7-0.9c-0.3,0-0.6,0.1-0.9,0.2c-1.1,0.6-2.4,0.9-3.8,0.9h-1.6
			c-0.8-2.3-1.2-4.7-1.2-7.2c0-12.4,10.1-22.5,22.5-22.5s22.5,10.1,22.5,22.5C66.7,68.1,65.4,72.3,63.1,75.8z M49.2,73.7
			c0.1,0.1,0.3,0.5,0.1,1c-0.1,0.3-0.3,0.4-0.5,0.6c-0.3,0.3-0.9,0.5-1.8,0c-0.5-0.3-0.5-0.4-1.1-0.3c-0.5,0.1-0.6-0.4-0.5-0.8
			c0.2-0.4,0.8-0.7,1.7-0.2c0.4,0.2,1,0.7,1.5,0.3C48.8,74.1,48.9,74,49.2,73.7C49.1,73.7,49.1,73.7,49.2,73.7
			C49.1,73.7,49.2,73.7,49.2,73.7z"/>
		<path id="path646" class="st3" d="M63.1,75.8c2.3-3.5,3.6-7.7,3.6-12.2c0-12.4-10.1-22.5-22.5-22.5s-22.5,10-22.5,22.4
			c0,2.5,0.4,4.9,1.2,7.2c3,8.9,11.4,15.3,21.3,15.3C52.1,86.1,59.1,82,63.1,75.8z"/>
		<path id="path648" class="st1" d="M56.9,57.6c-0.2,0.7-0.5,1.7-1.9,2.4c-0.2,0.1-0.3-0.1-0.2-0.2c0.5-0.9,0.6-1.1,0.8-1.5
			c0.2-0.5,0.3-1.3-0.1-2.8c-0.8-3-2.6-7.1-3.9-8.4c-1.2-1.3-3.5-1.6-5.5-1.1c-0.7,0.2-2.2,1-4.9,0.3c-4.7-1.1-5.4,1.3-5.7,2.3
			s-0.9,3.9-0.9,3.9c-0.2,1.2-0.5,3.2,6.8,4.6c3.4,0.6,3.6,1.5,3.7,2.2c0.3,1.1,0.7,1.8,1.2,2.1s0,0.6-0.5,0.6
			c-1.4,0.2-6.8-1.4-10-3.2c-2.6-1.6-2.6-3-2-4.2c-3.9-0.4-6.8,0.4-7.4,2.2c-0.9,3.2,7,8.6,16,11.3C51.8,71,61.5,69,62.6,63
			C63,60.4,60.7,58.4,56.9,57.6z M42.5,51.7c-2.6,0.2-2.9,0.5-3.4,1c-0.7,0.7-1.6-1-1.6-1c-0.5-0.1-1.2-1-0.8-1.8s1-0.6,1.2-0.3
			s0.8,0.8,1.5,0.8s1.5-0.2,2.6-0.2s1.9,0.4,1.9,0.8C43.8,51.4,43.7,51.7,42.5,51.7z M45.2,47.4L45.2,47.4
			C45.1,47.4,45.1,47.4,45.2,47.4C45.1,47.3,45.1,47.3,45.2,47.4c0.5-0.4,1.3-0.6,2.1-0.7c0.3,0,0.5,0,0.8,0h0.1
			c1.4,0,2.6,0.6,2.6,1.3s-1.2,1.2-2.6,1.2c-0.5,0-0.9-0.1-1.3-0.2c0,0-0.1,0-0.1-0.1c0,0,0-0.1,0.1-0.1c0.9-0.2,1.5-0.5,1.5-0.9
			c-0.1-0.4-1.2-0.7-2.6-0.5C45.5,47.4,45.3,47.4,45.2,47.4z"/>
		<g id="use4312" transform="translate(-94.61853,1.913321)">
			<path id="path650_1_" class="st4" d="M161.2,75.1c-0.9,0-1.6,0.7-1.6,1.6s0.7,1.6,1.6,1.6c0.9,0,1.6-0.7,1.6-1.6
				C162.8,75.8,162.1,75.1,161.2,75.1z M161.2,75.4c0.7,0,1.3,0.6,1.3,1.3c0,0.7-0.6,1.3-1.3,1.3s-1.3-0.6-1.3-1.3
				C159.8,76,160.4,75.4,161.2,75.4z M160.6,75.9v1.7h0.2v-0.7h0.3l0.4,0.7h0.3l-0.5-0.7c0.2,0,0.4-0.2,0.4-0.5s-0.2-0.4-0.6-0.4
				L160.6,75.9L160.6,75.9z M160.9,76.1h0.3c0.2,0,0.4,0,0.4,0.2c0,0.3-0.2,0.3-0.4,0.3h-0.3V76.1z"/>
		</g>
	</g>
</g>
</svg>
