<?xml version="1.0" encoding="utf-8"?>
<!-- Generator: Adobe Illustrator 22.1.0, SVG Export Plug-In . SVG Version: 6.00 Build 0)  -->
<svg version="1.1" id="Layer_1" xmlns="http://www.w3.org/2000/svg" xmlns:xlink="http://www.w3.org/1999/xlink" x="0px" y="0px"
	 viewBox="0 0 429 320" style="enable-background:new 0 0 429 320;" xml:space="preserve">
<style type="text/css">
	.st0{fill:#2E7FFE;}
	.st1{fill:none;stroke:#FFFFFF;stroke-width:10;stroke-linecap:round;stroke-linejoin:round;stroke-miterlimit:10;}
	.st2{display:none;fill:#FFFFFF;}
</style>
<g>
	<g>
		<g>
			<path class="st0" d="M394.8,197c-14.2,8-38.4,14.6-62.5,28.3c-24.5,12.7-47.9,31.6-75.2,43.5c-27.2,12.4-46.3,11.3-66-6
				c-10.4-8.1-22.3-18.9-38.6-29.8c-16.1-11.1-36.8-21.9-59.1-33.2c-22.9-12.2-42.6-23.9-58.1-40.7c-15.1-16.4-27.2-37.7-27.8-59
				C6.8,78.4,19.3,58.2,56.5,42.6c36-15.5,100.1-22.5,173.7-12c76.3,10.1,127.2,29.6,150.4,46.9c24.3,17.4,23.4,36.5,25.3,53.6
				C404.9,168.4,406.8,189.6,394.8,197z"/>
		</g>
	</g>
</g>
<g>
	<circle class="st1" cx="244.7" cy="150.2" r="8.3"/>
	<circle class="st1" cx="194.7" cy="150.2" r="8.3"/>
	<path class="st1" d="M178,183.5c0-6.9,5.6-12.5,12.5-12.5h8.3c6.9,0,12.5,5.6,12.5,12.5"/>
	<path class="st1" d="M228,183.5c0-6.9,5.6-12.5,12.5-12.5h8.3c6.9,0,12.5,5.6,12.5,12.5"/>
	<circle class="st1" cx="244.7" cy="100.2" r="8.3"/>
	<path class="st1" d="M231.2,125.2c2.3-2.5,5.6-4.2,9.3-4.2h8.3c3.7,0,7,1.6,9.3,4.2"/>
	<circle class="st1" cx="194.7" cy="100.2" r="8.3"/>
	<path class="st1" d="M181.2,125.2c2.3-2.5,5.6-4.2,9.3-4.2h8.3c3.7,0,7,1.6,9.3,4.2"/>
</g>
<path id="_x33_657864b-2ab3-40c6-b835-63fec3a4f400" class="st2" d="M229.3,182.8l30.5-39.9c0.4-0.6,0.3-1.4-0.3-1.9
	c-0.3-0.1-0.5-0.3-0.8-0.3h-16v-30.6c0-0.8-0.6-1.3-1.4-1.3c-0.4,0-0.8,0.3-1,0.5l-30.5,39.9c-0.4,0.6-0.3,1.4,0.3,1.9
	c0.3,0.1,0.5,0.3,0.8,0.3h16V182c0,0.8,0.6,1.3,1.4,1.3C228.7,183.5,229.1,183.2,229.3,182.8z"/>
</svg>
