<?xml version="1.0" encoding="utf-8"?>
<!-- Generator: Adobe Illustrator 21.0.2, SVG Export Plug-In . SVG Version: 6.00 Build 0)  -->
<svg version="1.1" id="Layer_1" xmlns="http://www.w3.org/2000/svg" xmlns:xlink="http://www.w3.org/1999/xlink" x="0px" y="0px"
	 viewBox="0 0 5223 272" style="enable-background:new 0 0 5223 272;" xml:space="preserve">
<style type="text/css">
	.st0{opacity:0.83;fill:#2987FE;enable-background:new    ;}
	.st1{fill:#FFFFFF;}
</style>
<path class="st0" d="M2057.1,81.5c206.9,106.3,297.8,187,660.2,117c493-95.2,624.1,36.8,898.2,41.7c226.7,4,357-103.1,521.4-103.1
	c164.3,0,274,125.2,436.4,129c170,4,685.7,4,685.7,4L0,268h715.9c11.4,0,16.6-2.1,19.3-5.5c22.9-28.4,142.7-155.7,415.2-111.5
	c151.2,24.5,310.3-29.5,459-85.3C1724.5,22.5,1936.4,19.5,2057.1,81.5z"/>
<path class="st1" d="M2057.1,123.4c206.9,83.8,297.8,147.4,660.2,92.2c493-75,624.1,29,898.2,32.8c226.7,3.1,357-81.3,521.4-81.3
	c164.3,0,274,98.6,436.4,101.6c170,3.1,685.7,3.1,685.7,3.1L0,270.4h715.9c11.4,0,16.6-1.7,19.3-4.3
	c22.9-22.4,142.7-122.7,415.2-87.9c151.2,19.3,310.3-23.3,459-67.2C1724.5,76.9,1936.4,74.6,2057.1,123.4z"/>
</svg>
