<?xml version="1.0" encoding="utf-8"?>
<!-- Generator: Adobe Illustrator 21.0.2, SVG Export Plug-In . SVG Version: 6.00 Build 0)  -->
<svg version="1.1"
	 id="svg2812" inkscape:output_extension="org.inkscape.output.svg.inkscape" inkscape:version="0.45+devel" sodipodi:docname="redhat-logo.svg" sodipodi:version="0.32" xmlns:cc="http://web.resource.org/cc/" xmlns:dc="http://purl.org/dc/elements/1.1/" xmlns:inkscape="http://www.inkscape.org/namespaces/inkscape" xmlns:rdf="http://www.w3.org/1999/02/22-rdf-syntax-ns#" xmlns:sodipodi="http://sodipodi.sourceforge.net/DTD/sodipodi-0.dtd" xmlns:svg="http://www.w3.org/2000/svg"
	 xmlns="http://www.w3.org/2000/svg" xmlns:xlink="http://www.w3.org/1999/xlink" x="0px" y="0px" viewBox="0 0 899.6 207"
	 style="enable-background:new 0 0 899.6 207;" xml:space="preserve">
<style type="text/css">
	.st0{fill:#99A9BB;}
</style>
<sodipodi:namedview  bordercolor="#666666" borderopacity="1.0" height="140px" id="base" inkscape:current-layer="layer1" inkscape:cx="174.26394" inkscape:cy="40.358463" inkscape:document-units="mm" inkscape:pageopacity="0.0" inkscape:pageshadow="2" inkscape:window-height="523" inkscape:window-width="722" inkscape:window-x="71" inkscape:window-y="636" inkscape:zoom="1" pagecolor="#ffffff" width="300px">
	</sodipodi:namedview>
<g>
	<path class="st0" d="M1.4,154.9v27.7c7.6,0,14.7,3.1,19.6,8c10.9,11,25,16.4,39.2,16.4c14.1,0,28.4-5.5,39.1-16.2
		c4.9-5.1,11.9-8.2,19.6-8.2c7.6,0,14.5,3.1,19.6,8.2c10.9,10.9,25,16.2,39.1,16.2s28.4-5.5,39.1-16.2c4.9-5.1,11.9-8,19.6-8v-27.7
		c-15.2,0-29.1,6.2-39.1,16.2c-5.4,5.4-12.4,8.2-19.5,8.2s-14.1-2.7-19.5-8.2c-10-10-23.8-16.2-39.1-16.2
		c-15.7-0.1-29.5,6.1-39.5,16.1c-5.4,5.4-12.4,8.2-19.5,8.2s-14.1-2.7-19.5-8.2C30.6,161.1,16.8,154.9,1.4,154.9"/>
	<polygon class="st0" points="358.8,116.4 346.4,116.4 333,171.6 317.5,116.4 308,116.4 292.5,171.6 279.1,116.4 266.7,116.4 
		286.8,193.6 297.1,193.6 312.7,139.4 328.5,193.6 338.6,193.6 	"/>
	<path class="st0" d="M400.7,166.1c0,3-0.1,5.9-0.7,8.5c-0.4,2.7-1.6,4.8-3.1,6.6c-1,1-2.3,1.8-3.7,2.4c-1.4,0.6-2.8,0.8-4.5,0.8
		s-3.1-0.3-4.5-0.8c-1.4-0.6-2.5-1.4-3.5-2.4c-1.7-1.7-2.7-4-3.1-6.6c-0.4-2.7-0.7-5.5-0.7-8.5s0.1-5.9,0.7-8.5
		c0.4-2.7,1.6-4.8,3.1-6.6c1-1,2.3-1.8,3.5-2.4c1.4-0.6,2.8-0.8,4.5-0.8s3.1,0.3,4.5,0.8s2.5,1.3,3.7,2.4c1.7,1.7,2.7,4,3.1,6.6
		C400.6,160.2,400.8,163,400.7,166.1 M411.9,166.1c0-4.7-0.4-8.6-1.3-12.3c-1-3.5-2.7-6.6-5.2-9.3c-1.8-1.8-4.1-3.4-6.8-4.7
		s-5.9-1.8-9.7-1.8c-3.7,0-6.9,0.7-9.6,1.8c-2.7,1.3-4.9,2.7-6.8,4.7c-2.5,2.7-4.2,5.8-5.2,9.3s-1.4,7.6-1.3,12.3
		c0,4.7,0.4,8.7,1.3,12.3c1,3.5,2.7,6.6,5.2,9.3c1.8,1.8,4,3.4,6.8,4.7c2.7,1.3,5.9,1.8,9.6,1.8c3.8,0,6.9-0.7,9.7-1.8
		c2.7-1.3,4.9-2.7,6.8-4.7c2.5-2.7,4.2-5.8,5.2-9.3C411.4,174.8,411.9,170.7,411.9,166.1"/>
	<path class="st0" d="M468.9,143.2c-1.8-1.8-3.8-3.2-5.9-4s-4.5-1.1-7.2-1.1c-3.1,0-6.1,0.7-8.6,1.8c-2.5,1.1-4.7,2.8-6.1,4.8v-5.9
		h-10.9v55h11v-33.6c0.1-3.8,1.1-6.9,3.2-9c2.1-2.1,4.7-3.2,7.8-3.4c1.8,0,3.4,0.3,4.7,0.8c1.3,0.6,2.4,1.6,3.7,2.8L468.9,143.2z"/>
	<path class="st0" d="M510.1,166.1c0.1,5.1-0.6,9.3-2,12.8s-4.7,5.4-9.5,5.5c-4.8-0.1-8-2-9.5-5.5c-1.6-3.5-2.1-7.8-2-12.8
		c-0.1-5.1,0.6-9.3,2-12.8s4.7-5.4,9.5-5.5c4.8,0.1,8,2,9.5,5.5S510.2,161,510.1,166.1 M521.1,193.6v-77.2h-11v27.8
		c-2-2.4-4.2-4-6.5-4.9c-2.4-0.8-4.9-1.4-7.9-1.3c-2.8,0-5.4,0.4-7.6,1.3c-2.2,0.9-4.2,2-5.8,3.5c-2.7,2.8-4.4,6.3-5.2,10.6
		c-0.7,4.2-1.1,8.3-1,12.7c-0.1,4.2,0.3,8.5,1,12.7s2.5,7.8,5.2,10.6c1.6,1.6,3.5,2.7,5.8,3.5c2.3,0.8,4.8,1.3,7.6,1.3
		c3,0,5.6-0.4,7.9-1.4c2.4-1,4.5-2.7,6.6-5.1v5.8h10.9V193.6z"/>
	<path class="st0" d="M591.6,171.6c0-3.4-0.6-6.3-1.6-9c-1-2.7-2.7-4.9-4.8-6.8c-1.6-1.4-3.5-2.7-5.8-3.5c-2.3-1-5.1-1.7-8.7-2.1
		l-8.7-1.3c-1.8-0.3-3.5-0.7-4.9-1.4c-1.6-0.6-2.7-1.4-3.7-2.3c-1-1-1.8-2-2.3-3.2c-0.4-1.3-0.7-2.5-0.7-4c0-3.5,1.3-6.3,3.7-8.6
		c2.4-2.3,5.9-3.4,10.4-3.5c3.2,0,6.2,0.4,9,1.3c2.8,0.9,5.4,2.4,7.8,4.7l7.5-7.3c-3.2-3.1-6.8-5.4-10.6-6.6
		c-3.8-1.4-8.3-2.1-13.3-2.1c-8,0.1-14.4,2.3-18.9,6.3s-6.8,9.6-6.9,16.4c0,3.1,0.4,5.9,1.4,8.3c1,2.4,2.4,4.5,4.2,6.3
		c1.7,1.6,3.8,3,6.2,4s5.2,1.8,8.5,2.3l9.2,1.3c2.3,0.3,4,0.7,5.2,1.1s2.4,1.1,3.2,2.1c1,1,1.8,2.1,2.3,3.4c0.6,1.4,0.7,2.8,0.7,4.5
		c0,3.8-1.4,6.6-4.2,8.7s-6.6,3.1-11.7,3.1c-4,0-7.5-0.4-10.7-1.6s-6.2-3-9-5.8l-7.8,7.8c3.7,3.7,7.6,6.3,12.1,7.9
		c4.4,1.6,9.5,2.4,15.2,2.3c8.2,0,14.8-2.1,19.9-6.1C588.9,184.3,591.5,178.8,591.6,171.6"/>
	<path class="st0" d="M632.7,193.6v-9.5h-4.5c-2.1,0-3.5-0.6-4.5-1.7c-1-1.1-1.6-2.7-1.6-4.7V148h10.6v-8.5h-10.6v-16.6h-11v16.6
		h-6.3v8.5h6.3v30.3c0,4.1,1.3,7.6,3.7,10.6s6.2,4.5,11.4,4.7C626.2,193.6,632.7,193.6,632.7,193.6z"/>
	<path class="st0" d="M689,143.2c-1.8-1.8-3.8-3.2-5.9-4c-2.1-0.8-4.5-1.1-7.2-1.1c-3.1,0-6.1,0.7-8.6,1.8c-2.5,1.1-4.7,2.8-6.1,4.8
		v-5.9h-10.9v55h11v-33.6c0.1-3.8,1.1-6.9,3.2-9c2.1-2.1,4.7-3.2,7.8-3.4c1.8,0,3.4,0.3,4.7,0.8c1.3,0.6,2.4,1.6,3.7,2.8L689,143.2z
		"/>
	<path class="st0" d="M731.6,161.6h-24.7c0-1.7,0.1-3,0.3-4.1c0.1-1.1,0.6-2.3,1.1-3.4c0.8-2.1,2.3-3.8,4.2-5.1
		c1.8-1.3,4.1-1.8,6.8-2c2.7,0,4.8,0.7,6.8,2c1.8,1.3,3.2,3,4.1,5.1c0.6,1.1,0.8,2.4,1.1,3.4C731.4,158.6,731.6,160,731.6,161.6
		 M742.6,169.3v-4.9c0-7.9-2.1-14.3-6.1-19c-4.1-4.8-9.7-7.2-17.2-7.3c-7.2,0-12.8,2.5-16.9,7.3c-4.1,4.8-6.2,11.7-6.3,20.7
		c0.1,10.3,2.5,17.6,7.2,22c4.7,4.2,10.4,6.3,17.5,6.2c4.7,0,8.6-0.7,11.9-2.1c3.1-1.4,6.1-3.5,8.7-6.3l-7.1-6.6
		c-1.8,2-3.8,3.4-5.8,4.2c-2,0.8-4.5,1.4-7.5,1.4c-4.5,0-8-1.4-10.3-4.2c-2.4-2.7-3.5-6.5-3.7-11.3L742.6,169.3L742.6,169.3z"/>
	<path class="st0" d="M790,173.7c0,2-0.1,3.5-0.6,4.9c-0.4,1.3-1,2.4-1.8,3.2c-1.4,1.4-3,2.3-4.7,2.7s-3.5,0.6-5.6,0.6
		c-3.5,0-6.1-0.7-7.6-2c-1.7-1.4-2.4-3.2-2.4-5.8c0-2.5,0.8-4.5,2.5-5.8c1.7-1.4,4.1-2.1,7.3-2.1h13v4.2H790V173.7z M801.1,193.6
		v-36.8c0-6.2-1.8-11-5.6-14.1c-3.8-3.1-9.5-4.8-16.9-4.8c-4.5,0-8.3,0.6-11.3,1.7c-3.1,1.1-5.9,3.2-8.3,6.2l7.2,6.8
		c1.4-2,3.1-3.2,4.9-4.1c1.8-0.8,4.2-1.3,7.2-1.1c4.2,0,7.3,0.8,9.2,2.5c1.8,1.7,2.8,4.2,2.8,7.8v4h-14.8c-6.3,0.1-11,1.6-14.3,4.5
		c-3.2,2.8-4.8,6.6-4.8,11.4c0,2.4,0.4,4.5,1.1,6.6c0.7,2,1.8,3.8,3.2,5.2c1.7,1.7,3.7,3,6.1,3.8c2.4,0.8,5.2,1.3,8.6,1.3
		c3.4,0,6.2-0.4,8.3-1.3c2.3-0.8,4.4-2.4,6.2-4.4v4.9H801L801.1,193.6L801.1,193.6z"/>
	<path class="st0" d="M899.6,193.6v-35.1c0-3.1-0.4-5.9-1.4-8.5c-0.8-2.5-2.4-4.9-4.5-6.9c-1.7-1.6-3.7-2.8-6.1-3.7
		c-2.4-0.9-4.9-1.3-7.9-1.3c-3.7,0-6.9,0.7-9.7,2c-2.8,1.3-5.4,3.4-7.6,6.1c-1.7-2.7-4-4.7-6.5-5.9c-2.7-1.4-5.6-2-9-2
		c-2.8,0-5.5,0.6-8,1.6s-4.8,2.5-6.6,4.7v-5.5h-10.9v55h11v-34c0.1-4.2,1.3-7.3,3.4-9.3c2.1-2,4.8-3,8-3c3.1,0,5.8,1,7.9,3
		c2.1,2,3.1,5.1,3.2,9.3v33.6h11v-34c0.1-4,1.3-6.9,3.5-8.9c2.3-2,4.8-2.8,7.9-2.8s5.8,1,7.9,3c2.1,2,3.1,5.1,3.2,9.3v33.6h11.1
		L899.6,193.6L899.6,193.6z"/>
	<path class="st0" d="M1.4,111.9v27.7c7.6,0,14.7,3.1,19.6,8C31.9,158.5,46,164,60.2,164c14.1,0,28.4-5.5,39.1-16.2
		c4.9-5.1,11.9-8.2,19.6-8.2c7.6,0,14.5,3.1,19.6,8.2c10.9,10.9,25,16.2,39.1,16.2s28.4-5.5,39.1-16.2c4.9-5.1,11.9-8,19.6-8V112
		c-15.2,0-29.1,6.2-39.1,16.2c-5.4,5.4-12.4,8.2-19.5,8.2s-14.1-2.7-19.5-8.2c-10.2-10.1-24-16.3-39.3-16.3
		c-15.4,0-29.2,6.2-39.2,16.2c-5.4,5.4-12.4,8.2-19.5,8.2s-14.1-2.7-19.5-8.2C30.6,118.1,16.8,111.9,1.4,111.9"/>
</g>
</svg>
