<?xml version="1.0" encoding="UTF-8" standalone="no"?>
<!-- Created with Inkscape (http://www.inkscape.org/) -->

<svg
   xmlns:dc="http://purl.org/dc/elements/1.1/"
   xmlns:cc="http://creativecommons.org/ns#"
   xmlns:rdf="http://www.w3.org/1999/02/22-rdf-syntax-ns#"
   xmlns:svg="http://www.w3.org/2000/svg"
   xmlns="http://www.w3.org/2000/svg"
   xmlns:sodipodi="http://sodipodi.sourceforge.net/DTD/sodipodi-0.dtd"
   xmlns:inkscape="http://www.inkscape.org/namespaces/inkscape"
   width="500"
   height="467.46899"
   viewBox="0 0 500.00001 467.46899"
   id="svg4474"
   version="1.1"
   inkscape:version="0.91 r13725"
   sodipodi:docname="logo-hotel.svg"
   inkscape:export-filename="/home/john/www/clients/lather/design/logo-hotel.png"
   inkscape:export-xdpi="92.160004"
   inkscape:export-ydpi="92.160004">
  <defs
     id="defs4476" />
  <sodipodi:namedview
     id="base"
     pagecolor="#ffffff"
     bordercolor="#666666"
     borderopacity="1.0"
     inkscape:pageopacity="0.0"
     inkscape:pageshadow="2"
     inkscape:zoom="0.98994949"
     inkscape:cx="245.54492"
     inkscape:cy="301.82774"
     inkscape:document-units="px"
     inkscape:current-layer="layer1"
     showgrid="false"
     units="px"
     fit-margin-top="0"
     fit-margin-left="0"
     fit-margin-right="0"
     fit-margin-bottom="0"
     inkscape:showpageshadow="false"
     showborder="true"
     borderlayer="true" />
  <metadata
     id="metadata4479">
    <rdf:RDF>
      <cc:Work
         rdf:about="">
        <dc:format>image/svg+xml</dc:format>
        <dc:type
           rdf:resource="http://purl.org/dc/dcmitype/StillImage" />
        <dc:title></dc:title>
      </cc:Work>
    </rdf:RDF>
  </metadata>
  <g
     inkscape:label="Layer 1"
     inkscape:groupmode="layer"
     id="layer1"
     transform="translate(-192.19204,99.09787)">
    <g
       id="g5049"
       transform="matrix(2.6731608,0,0,2.6731608,-321.56819,-616.34414)">
      <path
         inkscape:connector-curvature="0"
         id="path222"
         style="fill:#ff8400;fill-opacity:1;fill-rule:nonzero;stroke:none"
         d="m 371.38403,334.479 1.49375,0 c 0.545,0 1.64375,0 1.64375,-1.1925 -0.0775,-0.75 -0.83625,-0.83375 -1.44875,-0.83375 l -1.68875,0 0,2.02625 z m 1.83125,-3.22125 c 0.45125,0 2.5625,0 2.5625,1.98125 0,0.8075 -0.36625,1.5325 -1.33375,1.76375 l 0,0.0337 c 1.0225,0.27125 1.1575,0.88125 1.2075,1.825 0.07,1.23125 0.07,1.36375 0.22875,1.67375 l -1.23875,0 c -0.15,-0.235 -0.1975,-0.4425 -0.22625,-1.36 -0.0525,-1.12375 -0.27125,-1.47375 -1.5375,-1.54875 l -1.49375,0 0,2.90875 -1.21375,0 0,-7.2775 3.045,0 z m -5.3875,3.6 c 0,2.775 2.20625,5.06125 5.0475,5.06125 2.77625,0 5.01,-2.2675 5.01,-5.06125 0,-2.7925 -2.16375,-5.1175 -5.01,-5.1175 -2.875,0 -5.0475,2.325 -5.0475,5.1175 m 11.40875,0 c 0,3.4975 -2.88875,6.3425 -6.35875,6.3425 -3.555,0 -6.3875,-2.9 -6.3875,-6.3425 0,-3.49125 2.8025,-6.34625 6.3875,-6.34625 3.52875,0 6.35875,2.835 6.35875,6.34625" />
      <path
         inkscape:connector-curvature="0"
         id="path226"
         style="fill:#ff8400;fill-opacity:1;fill-rule:nonzero;stroke:none"
         d="m 350.83079,352.33238 0,-9.37875 3.6325,0 c 4.44375,0 5.49,2.95875 5.49,4.6525 0,1.61375 -0.78125,4.72625 -5.49,4.72625 l -3.6325,0 z m -53.31,-2.2025 -11.035,0 0,-11.95 11.035,0 0,11.95 z m -70.86125,4.955 3.4825,-9.4425 0.0925,0 3.4925,9.4425 -7.0675,0 z m 139.03625,-18.61625 -0.0325,-142.9725 -173.47125,0 0.0362,144.68375 0,30.19125 15.08375,0 0,-5.32 -9.39,0 0,-24.87125 29.83125,0 -12.56125,30.19125 6.26125,0 3.31375,-7.9275 10.995,0 3.26375,7.9275 6.28375,0 -12.65375,-30.19125 20.63125,0 0,4.77375 5.6825,0 0,25.4175 5.66875,0 0,-25.4175 5.74875,0 0,-4.77375 10.4225,0 0,30.19125 5.67625,0 0,-12.925 11.035,0 0,12.925 5.66,0 0,-30.19125 12.8525,0 0,30.19125 16.5175,0 0,-5.32 -10.83,0 0,-7.285 10.3625,0 0,-5.30125 -10.3625,0 0,-7.51125 10.83,0 0,-4.77375 12.57875,0 0,30.19125 5.70125,0 0,-11.74625 0.0675,0 8.14875,11.74625 6.89,0 -8.35,-11.3425 c 1.54125,-0.37625 3.285,-0.7775 5.10625,-2.54 2.20375,-2.105 2.97,-5.315 2.97,-7.355 l 0.0325,-10.665 z" />
    </g>
  </g>
</svg>
