<?xml version="1.0" encoding="utf-8"?>
<!-- Generator: Adobe Illustrator 21.0.2, SVG Export Plug-In . SVG Version: 6.00 Build 0)  -->
<svg version="1.1" id="Layer_1" xmlns="http://www.w3.org/2000/svg" xmlns:xlink="http://www.w3.org/1999/xlink" x="0px" y="0px"
	 viewBox="0 0 429 320" style="enable-background:new 0 0 429 320;" xml:space="preserve">
<style type="text/css">
	.st0{fill:#2E7FFE;}
	.st1{fill:#FFFFFF;}
</style>
<g>
	<g>
		<path class="st0" d="M386.2,214.5c-12.3,8.8-34.9,15.6-57.8,29.3c-23.3,12.7-46.4,31.3-74.1,41.7c-27.5,11-47.2,8.2-67.1-10
			c-10.5-8.6-22.4-19.8-38.3-30.9c-15.7-11.3-35.6-22.2-56.1-33.2c-21-11.9-38-23-49.3-38.7c-11.1-15.3-17.2-35.1-13.7-54.6
			C33.2,98.2,47,80.6,79.7,68.4c31.8-12.2,84.2-16.6,145.1-12c63.1,4.1,107.2,14.8,129.1,30c22.8,14.9,25.6,36,30.5,54.6
			C390.6,182.1,396.6,206.4,386.2,214.5z"/>
	</g>
</g>
<path id="_x33_657864b-2ab3-40c6-b835-63fec3a4f400" class="st1" d="M226.3,196.8l30.5-39.9c0.4-0.6,0.3-1.4-0.3-1.9
	c-0.3-0.1-0.5-0.3-0.8-0.3h-16v-30.6c0-0.8-0.6-1.3-1.4-1.3c-0.4,0-0.8,0.3-1,0.5l-30.5,39.9c-0.4,0.6-0.3,1.4,0.3,1.9
	c0.3,0.1,0.5,0.3,0.8,0.3h16v30.6c0,0.8,0.6,1.3,1.4,1.3C225.7,197.5,226.1,197.2,226.3,196.8z"/>
<path class="st1" d="M206.2,144.7h-25.5c-0.6,0-1.3-0.5-1.3-1.2v-0.1v-7.7c0-0.6,0.5-1.3,1.2-1.3h0.1h25.5c0.6,0,1.3,0.5,1.3,1.2
	v0.1v7.7C207.5,144.2,207,144.7,206.2,144.7z"/>
<path class="st1" d="M206.2,185.7h-25.5c-0.6,0-1.3-0.5-1.3-1.2v-0.1v-7.7c0-0.6,0.5-1.3,1.2-1.3h0.1h25.5c0.6,0,1.3,0.5,1.3,1.2
	v0.1v7.7c0,0.6-0.5,1.3-1.2,1.3H206.2z"/>
<path class="st1" d="M194.3,165.2H173c-0.6,0-1.3-0.5-1.3-1.2v-0.1v-7.7c0-0.6,0.5-1.3,1.2-1.3h0.1h21.4c0.6,0,1.3,0.5,1.3,1.2v0.1
	v7.7C195.6,164.7,195,165.2,194.3,165.2z"/>
</svg>
